<svg width="100" height="100" viewBox="0 0 350 352" fill="none" xmlns="http://www.w3.org/2000/svg">
<circle cx="175" cy="175" r="175" fill="url(#paint0_linear)"/>
<path d="M173.144 283.456C157.208 283.456 141.752 281.344 126.776 277.12C111.992 272.704 100.088 267.04 91.064 260.128L106.904 224.992C115.544 231.328 125.816 236.416 137.72 240.256C149.624 244.096 161.528 246.016 173.432 246.016C186.68 246.016 196.472 244.096 202.808 240.256C209.144 236.224 212.312 230.944 212.312 224.416C212.312 219.616 210.392 215.68 206.552 212.608C202.904 209.344 198.104 206.752 192.152 204.832C186.392 202.912 178.52 200.8 168.536 198.496C153.176 194.848 140.6 191.2 130.808 187.552C121.016 183.904 112.568 178.048 105.464 169.984C98.552 161.92 95.096 151.168 95.096 137.728C95.096 126.016 98.264 115.456 104.6 106.048C110.936 96.448 120.44 88.864 133.112 83.296C145.976 77.728 161.624 74.944 180.056 74.944C192.92 74.944 205.496 76.48 217.784 79.552C230.072 82.624 240.824 87.04 250.04 92.8L235.64 128.224C217.016 117.664 198.392 112.384 179.768 112.384C166.712 112.384 157.016 114.496 150.68 118.72C144.536 122.944 141.464 128.512 141.464 135.424C141.464 142.336 145.016 147.52 152.12 150.976C159.416 154.24 170.456 157.504 185.24 160.768C200.6 164.416 213.176 168.064 222.968 171.712C232.76 175.36 241.112 181.12 248.024 188.992C255.128 196.864 258.68 207.52 258.68 220.96C258.68 232.48 255.416 243.04 248.888 252.64C242.552 262.048 232.952 269.536 220.088 275.104C207.224 280.672 191.576 283.456 173.144 283.456Z" fill="white"/>
<defs>
<linearGradient id="paint0_linear" x1="44" y1="53" x2="302" y2="288" gradientUnits="userSpaceOnUse">
<stop stop-color="#F5B40A"/>
<stop offset="1" stop-color="#F07171"/>
</linearGradient>
</defs>
</svg>
